<svg xmlns="http://www.w3.org/2000/svg" xmlns:xlink="http://www.w3.org/1999/xlink" width="1732" height="1732" data-name="Layer 1" preserveAspectRatio="xMidYMid meet" version="1.0" viewBox="-0.4 0 1731.5 1732.1" zoomAndPan="magnify"><g id="change1_1"><path fill="#fff" d="M1000,134.43c-478.47,0-864.95,385.96-865.57,864.43A861.724,861.724,0,0,0,235.372,1406a123.837,123.837,0,0,1,12.5,80.7l-20.51,273.94a29.042,29.042,0,0,0,36.5,33.22l224.33-46.54a123.314,123.314,0,0,1,93.45,10.61c125.61,69.48,270.33,108.65,424.28,107.62,476.63-3.19,859.65-388.92,859.65-865.56S1478.052,134.43,1000,134.43Zm0,1545.54a676.712,676.712,0,0,1-348.537-96.012,55.839,55.839,0,0,0-43.171-6.037L423,1627.749c-29.32,7.89-55.76-19.77-46.55-48.71l54.085-169.992a55.83,55.83,0,0,0-6.022-46.724,676.706,676.706,0,0,1-104.473-362.314c0-375.12,304.85-679.98,679.97-679.97,376.967,0,682.289,306.765,679.947,684.275-2.324,374.5-305.446,675.655-679.957,675.655Z" transform="translate(-134.429 -134.43)"/></g><g id="change1_2"><path fill="#fff" d="M1000,1692.47a689.957,689.957,0,0,1-370.438-107.324l-203.316,54.676a50.883,50.883,0,0,1-61.707-64.573l60.3-189.523c-76.764-114.207-117.3-247.433-117.3-385.715a692.283,692.283,0,0,1,692.451-692.47h.018A692.465,692.465,0,1,1,1000,1692.47ZM633.768,1558.127l4.665,3.013A664.964,664.964,0,0,0,1000,1667.47c368.044,0,667.47-299.426,667.47-667.47s-299.421-667.46-667.46-667.46c-178.085,0-345.646,69.479-471.816,195.65S332.543,821.922,332.543,1000.01c0,135.266,40.237,265.512,116.363,376.657l3.449,5.036-63.99,201.127a25.882,25.882,0,0,0,31.389,32.849l214.014-57.553Z" transform="translate(-134.429 -134.43)"/></g><g id="change1_3"><path fill="#fff" d="M1226.729,1426.142a107.1,107.1,0,0,1-21.449-2.173c-107.816-22-203.5-64.017-284.395-124.9-68.664-51.677-127.522-117.538-174.94-195.756-38.03-62.731-68.858-133.571-91.627-210.552A1060.568,1060.568,0,0,1,618.837,722,106.84,106.84,0,0,1,688.62,608.345l61.8-22.248A106.766,106.766,0,0,1,890.48,661.948l26.794,113.127A106.084,106.084,0,0,1,896.58,866.6l-20.052,24.931A81.6,81.6,0,0,0,869.3,983.5c40.66,71.636,103.684,123.381,149.4,154.179a82.078,82.078,0,0,0,97.507-4.932,106.77,106.77,0,0,1,128.1-5.95l78.573,53.5a106.907,106.907,0,0,1,27.063,148.6l-35.466,51.239a106.7,106.7,0,0,1-87.742,46.015ZM786.585,604.774a81.982,81.982,0,0,0-27.7,4.843l-61.793,22.246a81.4,81.4,0,0,0-53.446,87.069c21.447,174.246,119.59,589.341,566.633,680.542a81.734,81.734,0,0,0,83.638-33.578l35.464-51.237a81.865,81.865,0,0,0-20.687-113.776l-.554-.379-77.911-53.046a82.178,82.178,0,0,0-98.1,4.549,106.607,106.607,0,0,1-127.391,6.415c-47.956-32.31-114.133-86.726-157.175-162.561a107.048,107.048,0,0,1,9.465-119.982l20.064-24.946a81.246,81.246,0,0,0,15.849-70.1h0L866.149,667.71a81.918,81.918,0,0,0-79.566-62.934Z" transform="translate(-134.429 -134.43)"/></g></svg>